<?xml version="1.0" standalone="no"?><!DOCTYPE svg PUBLIC "-//W3C//DTD SVG 1.1//EN" "http://www.w3.org/Graphics/SVG/1.1/DTD/svg11.dtd"><svg t="1532225570381" class="icon" style="" viewBox="0 0 1025 1024" version="1.1" xmlns="http://www.w3.org/2000/svg" p-id="12404" xmlns:xlink="http://www.w3.org/1999/xlink" width="64.0625" height="64"><defs><style type="text/css"></style></defs><path d="M461.015563 785.533459c-12.298765 0-24.59878-4.697506-33.978791-14.091267L229.42903 573.863201c-18.750023-18.765023-18.750023-49.17006 0-67.935083 18.745023-18.763773 49.17006-18.763773 67.925083 0l163.66145 163.6727 418.05801-418.10676c18.765023-18.763773 49.18006-18.763773 67.943833 0 18.730023 18.741273 18.730023 49.15631 0 67.925083L494.956854 771.455942C485.586843 780.835953 473.276828 785.533459 461.015563 785.533459L461.015563 785.533459zM512.003125 1024C229.68778 1024 0 794.31722 0 512.004375 0 229.68778 229.68778 0 512.003125 0c100.707623 0 198.193992 29.223786 281.875344 84.511353 16.855021 11.133764 21.485026 33.818791 10.366263 50.673812-11.132514 16.846271-33.818791 21.500026-50.673812 10.366263-71.698838-47.372558-155.23894-72.411338-241.567795-72.411338-241.997795 0-438.861786 196.86524-438.861786 438.863036 0 241.991545 196.86524 438.858036 438.861786 438.858036 241.992795 0 438.858036-196.86649 438.858036-438.858036 0-15.273769-0.776251-30.651287-2.338753-45.713806-2.080003-20.097525 12.528765-38.061296 32.61754-40.131299 20.068774-2.085003 38.061296 12.528765 40.131299 32.61254 1.816252 17.548771 2.730003 35.448793 2.730003 53.232565C1024 794.31722 794.31722 1024 512.003125 1024L512.003125 1024zM512.003125 1024" p-id="12405" fill="#8a8a8a"></path></svg>