<?xml version="1.0" standalone="no"?><!DOCTYPE svg PUBLIC "-//W3C//DTD SVG 1.1//EN" "http://www.w3.org/Graphics/SVG/1.1/DTD/svg11.dtd"><svg t="1532225514104" class="icon" style="" viewBox="0 0 1024 1024" version="1.1" xmlns="http://www.w3.org/2000/svg" p-id="9371" xmlns:xlink="http://www.w3.org/1999/xlink" width="64" height="64"><defs><style type="text/css"></style></defs><path d="M512.01024 957.44C265.99424 957.44 66.56 758.00064 66.56 512c0-246.00576 199.43424-445.44 445.45024-445.44C758.01088 66.56 957.44 265.99424 957.44 512c0 246.00064-199.42912 445.44-445.42976 445.44z m0-840.40704c-218.1376 0-394.97216 176.83456-394.97216 394.96704s176.82944 394.97216 394.97216 394.97216c218.13248 0 394.96192-176.83968 394.96192-394.96704 0-218.1376-176.83456-394.97216-394.96192-394.97216zM301.9776 651.41248a26.2656 26.2656 0 0 1 12.65664-34.95936l194.66752-65.1008V276.66944c0-14.53568 11.76064-26.28608 26.2912-26.28608s26.2912 11.7504 26.2912 26.28608v289.152c0 1.08032-0.49152 1.96096-0.61952 3.01056 0.5632 10.38848-5.01248 20.56192-15.02208 25.2416l-209.32608 69.96992a26.26048 26.26048 0 0 1-34.93888-12.63104z" fill="#8a8a8a" p-id="9372"></path></svg>